<?xml version="1.0" encoding="utf-8"?>
<!-- Generator: Adobe Illustrator 23.0.5, SVG Export Plug-In . SVG Version: 6.00 Build 0)  -->
<svg version="1.1" xmlns="http://www.w3.org/2000/svg" xmlns:xlink="http://www.w3.org/1999/xlink" x="0px" y="0px"
	 viewBox="0 0 125.93 47.21" style="enable-background:new 0 0 125.93 47.21;" xml:space="preserve">
<style type="text/css">
	.st0{fill:#1B60A6;}
	.st1{display:none;}
	.st2{display:inline;fill:#0F0F0E;}
	.st3{font-family:'OpenSans-ExtraBoldItalic';}
	.st4{font-size:36.0845px;}
	.st5{fill:#FFFFFF;}
</style>
<g id="Capa_1">
	<g id="NRG">
		<path id="R" class="st0" d="M45.92,27.4c0.41-0.01,0.95,0.34,0.65,0.7L31.71,46.63c-0.12,0.14,0.03,0.38,0.17,0.27l35.54-26.66
			c0.33-0.25,0.19-0.89-0.19-0.89l-15.89-0.02c-0.04,0-0.05-0.05-0.03-0.09l9.72-11.72c0.07-0.09,0.16-0.13,0.26-0.13
			c1.8,0,19.28,0.05,22.77,0.06c0.28,0,0.44,0.4,0.28,0.68c-0.36,0.61-1.04,1.42-2.19,1.7c-0.24,0.06-0.55,0.1-0.91,0.09L63.47,9.85
			c-0.1,0-0.2,0.05-0.27,0.14l-5.57,6.89c-0.05,0.06-0.01,0.17,0.05,0.17l1.49-0.02l11.66,0.03c0.33,0,0.62,0.22,0.69,0.54l0,0
			c0,0.01,0.01,0.03,0.01,0.04c0.14,0.47,2.93,9.77,3,9.77c0.1,0.01,7.29,0,9.89,0c0.49,0,0.48-0.25,0.11-1.32
			c-0.03-0.08-0.05-0.14-0.06-0.15l-2.38-6.98c-0.36-1.07-0.06-1.65,0.39-1.65c0.33,0,0.71-0.01,1.11-0.05
			c1.46-0.15,2.48-0.56,3.28-0.89c0.47-0.2,1.89-0.93,3.1-1.99c1.27-1.12,2.33-2.59,2.66-3.29c0.58-1.23,0.86-2.56,0.92-2.85
			c0.1-0.52,0.22-1.13,0.25-2.17c0.02-0.61-0.05-1.08-0.15-1.49c-0.05-0.2-0.23-0.85-0.55-1.41c-0.32-0.55-0.78-1.01-0.99-1.19
			c-0.46-0.41-0.74-0.65-1.15-0.89c-0.42-0.24-1.05-0.51-2.39-0.77c-0.59-0.11-1.53-0.24-2.29-0.24H56.09L55.6,0.12
			c-0.12,0-0.32,0.12-0.4,0.22c0,0-23.43,27.38-23,27.06H45.92z"/>
		<g class="st1">
			<text transform="matrix(1.4826 7.879328e-03 -8.522259e-03 1.0292 88.7378 26.8963)" class="st2 st3 st4">G</text>
		</g>
		<path id="N" class="st5" d="M9.04,27.4C9.04,27.4,9.04,27.4,9.04,27.4c0.11,0,0.21-0.07,0.24-0.18l4.68-18.13
			c0.06-0.23,0.39-0.24,0.47-0.02L21,27.29c0.02,0.07,0.08,0.11,0.13,0.11H32.1c0.06,0,0.12-0.05,0.14-0.12l7.72-26.93
			c0.03-0.12-0.06-0.21-0.16-0.21h-8.22h-0.05c-0.11,0-0.21,0.07-0.23,0.18l-4.75,17.36c-0.06,0.22-0.38,0.24-0.46,0.02L19.65,0.32
			c-0.02-0.06-0.08-0.11-0.13-0.11l-11-0.12c-0.06,0-0.12,0.05-0.14,0.12c0,0-7.28,25.24-7.8,27.07c-0.02,0.07,0.01,0.11,0.09,0.11
			C1.68,27.4,9.04,27.4,9.04,27.4z"/>
	</g>
</g>
<g id="Capa_2">
	<path class="st5" d="M95.71,6.54c0.28-0.29,0.52-0.53,0.67-0.67C96.67,5.6,97.6,4.73,99,3.83c2.81-1.82,6.44-2.76,6.76-2.84
		c2.09-0.53,3.71-0.66,5.17-0.78c1.2-0.09,3.9-0.26,7.26,0.11c2.66,0.29,4.43,0.76,5.01,0.93c0.68,0.19,1.3,0.4,1.3,0.4
		c0.49,0.17,0.91,0.33,1.24,0.47l0.01,0.01l-0.73,1.05l-1.71,2.44l-1.44,2.07c-0.12-0.05-0.29-0.12-0.48-0.19
		c0,0-0.44-0.17-0.84-0.31c-1.63-0.58-3.13-0.86-3.13-0.86c-1.42-0.27-2.54-0.31-2.83-0.32c-1.83-0.06-3.21,0.19-3.56,0.26
		c-0.84,0.16-1.83,0.36-3.03,0.92c-1.51,0.71-2.5,1.61-2.91,2.01c-0.51,0.49-1.3,1.36-1.97,2.63c-0.89,1.68-1.09,3.15-1.17,3.8
		c-0.09,0.75-0.08,1.31-0.02,1.83c0.05,0.41,0.12,0.95,0.42,1.59c0.1,0.21,0.27,0.56,0.6,0.92c0.35,0.39,0.7,0.59,0.92,0.72
		c0.13,0.08,0.55,0.31,1.27,0.5c0.68,0.18,1.21,0.21,1.81,0.24c0.93,0.05,1.67-0.01,2.51-0.08c0.49-0.04,0.9-0.09,1.19-0.12h0.12
		l1.38-4.23l-5.98-0.03l1.81-5.53l5.93,0.03l9.99,0.05l-1.75,5.65l-2.72,8.75c-0.01,0-0.03,0.01-0.05,0.01
		c-0.52,0.12-0.91,0.19-1.15,0.24c-1.25,0.23-1.88,0.34-2.32,0.41c-1.5,0.23-2.66,0.35-3.47,0.43c-1.38,0.14-2.42,0.2-2.71,0.21
		c-0.54,0.03-1.4,0.08-2.5,0.09c-0.89,0.01-2.01,0-3.31-0.07c-0.56,0.01-1.21-0.03-1.93-0.13c-0.34-0.05-0.35-0.08-1.58-0.35
		c-1.09-0.24-1.08-0.22-1.31-0.29c-0.2-0.06-0.4-0.13-1.61-0.67c-0.69-0.31-1.04-0.46-1.13-0.51c-0.82-0.44-1.37-0.92-1.69-1.21
		c-0.27-0.24-0.78-0.72-1.31-1.42c-0.39-0.51-0.88-1.16-1.23-2.12c-0.22-0.6-0.29-1.06-0.4-1.77c-0.11-0.72-0.26-1.73-0.19-3.03
		c0.09-1.65,0.5-2.87,0.78-3.67c0.55-1.61,1.23-2.72,1.42-3.03C94.49,7.83,95.28,6.99,95.71,6.54z"/>
</g>
</svg>
